<svg width="400" height="348" viewBox="0 0 364 316" fill="none" xmlns="http://www.w3.org/2000/svg">
<path d="M165.499 171.171L106.762 258.281L61.6377 260.746L149.13 130.992L165.499 171.171Z" fill="url(#paint0_linear_2948_8537)"/>
<path d="M207.7 142.217L195.91 159.719L170.4 97.1537C170.155 96.5565 169.879 95.9747 169.573 95.4234C169.435 95.1784 169.297 94.9488 169.144 94.7191C169.006 94.4894 168.853 94.2597 168.7 94.0454C168.578 93.8616 168.44 93.6932 168.287 93.5247C168.011 93.1573 167.705 92.8051 167.383 92.4682C167.261 92.3304 167.108 92.1773 166.97 92.0548C166.848 91.9323 166.725 91.8251 166.603 91.7179C166.541 91.6567 166.495 91.6107 166.434 91.5495L194.21 113.905C196.124 115.452 197.609 117.457 198.574 119.831L207.7 142.217Z" fill="url(#paint1_linear_2948_8537)"/>
<path d="M246.668 197.983L236.593 212.912L209.751 252.708L199.018 253.289L189.049 268.05L177.137 285.69L182.22 289.778C168.087 303.712 151.458 311.322 132.028 312.378L66.3544 315.977C63.0317 316.145 59.908 315.395 57.2897 313.803C56.7691 313.481 56.2791 313.144 55.8197 312.761L28.0591 290.406C28.0591 290.406 28.151 290.467 28.1969 290.498C28.4878 290.727 28.7941 290.926 29.1156 291.125C31.7187 292.718 34.8576 293.468 38.1803 293.284L103.853 289.686C129.869 288.262 150.861 275.109 167.582 250.778L208.404 190.235L217.346 176.974L220.163 172.794L230.269 157.834L246.668 197.983Z" fill="url(#paint2_linear_2948_8537)"/>
<path d="M331.849 281.554C331.329 285.076 329.935 288.583 327.822 291.722C325.709 294.86 322.953 297.509 319.799 299.439C316.66 301.353 313.26 302.455 309.938 302.639L205.311 308.366L182.22 289.777L177.137 285.689L186.6 285.168L281.764 279.962C285.086 279.778 288.486 278.66 291.625 276.762C294.779 274.832 297.535 272.168 299.648 269.044C301.761 265.89 303.154 262.399 303.675 258.877C304.196 255.356 303.844 251.941 302.634 249.001L251.584 123.963C251.262 123.167 250.879 122.417 250.435 121.712C250.328 121.529 250.206 121.345 250.083 121.161C249.976 121.008 249.884 120.855 249.762 120.717C249.134 119.844 248.399 119.063 247.603 118.359L275.394 140.73C277.293 142.261 278.793 144.282 279.758 146.656L330.808 271.678C332.018 274.633 332.37 278.048 331.849 281.554Z" fill="url(#paint3_linear_2948_8537)"/>
<path d="M302.633 249.002L251.583 123.964C251.262 123.168 250.879 122.418 250.435 121.714C250.328 121.53 250.205 121.346 250.083 121.162C249.975 121.009 249.884 120.856 249.761 120.718C249.133 119.846 248.398 119.065 247.602 118.36C247.556 118.33 247.51 118.299 247.48 118.268C246.944 117.809 246.362 117.38 245.749 117.013C243.131 115.405 240.007 114.655 236.685 114.839C233.362 115.022 229.947 116.125 226.824 118.039C223.685 119.968 220.913 122.632 218.8 125.756L207.699 142.216L195.909 159.718L170.399 97.1531C170.154 96.556 169.878 95.9741 169.572 95.4229C169.434 95.1779 169.297 94.9482 169.143 94.7185C169.006 94.4889 168.852 94.2592 168.699 94.0448C168.577 93.8611 168.439 93.6926 168.286 93.5242C168.01 93.1567 167.704 92.8045 167.382 92.4677C167.26 92.3299 167.107 92.1767 166.969 92.0543C166.847 91.9318 166.724 91.8246 166.602 91.7174C166.54 91.6561 166.494 91.6102 166.433 91.549C166.341 91.4724 166.234 91.3958 166.142 91.3193C165.652 90.9059 165.116 90.5231 164.565 90.1862C161.962 88.5937 158.838 87.8435 155.5 88.0272C152.178 88.2109 148.763 89.3134 145.624 91.2274C142.485 93.1567 139.714 95.8057 137.616 98.9447L26.2671 264.115C24.1541 267.254 22.7607 270.761 22.2401 274.282C21.7041 277.789 22.0716 281.203 23.2813 284.159C24.3072 286.7 25.9456 288.829 28.0586 290.406C28.1046 290.436 28.1505 290.467 28.1964 290.498C28.4874 290.727 28.7936 290.926 29.1151 291.126C31.7182 292.718 34.8571 293.468 38.1799 293.285L103.853 289.686C129.868 288.262 150.861 275.109 167.582 250.778L208.403 190.235L217.346 176.975L220.163 172.794L230.269 157.835L246.668 197.983L267.707 249.523L209.751 252.708L199.017 253.29L189.049 268.05L177.136 285.69L186.599 285.169L281.763 279.963C285.086 279.779 288.485 278.662 291.624 276.763C294.778 274.834 297.535 272.169 299.648 269.046C301.761 265.891 303.154 262.4 303.675 258.878C304.195 255.357 303.843 251.942 302.633 249.002ZM144.782 235.482C133.727 251.284 122.947 257.409 107.528 258.235L106.762 258.281L61.6378 260.747L149.131 130.993L165.499 171.171L174.028 192.118L144.782 235.482Z" fill="url(#paint4_linear_2948_8537)"/>
<defs>
<linearGradient id="paint0_linear_2948_8537" x1="156.127" y1="244.694" x2="76.2665" y2="203.027" gradientUnits="userSpaceOnUse">
<stop stop-color="#00DC82"/>
<stop offset="1" stop-color="#058163"/>
</linearGradient>
<linearGradient id="paint1_linear_2948_8537" x1="203.976" y1="151.285" x2="169.047" y2="137.503" gradientUnits="userSpaceOnUse">
<stop stop-color="#00DC82"/>
<stop offset="1" stop-color="#058163"/>
</linearGradient>
<linearGradient id="paint2_linear_2948_8537" x1="226.943" y1="296.433" x2="108.901" y2="190.087" gradientUnits="userSpaceOnUse">
<stop stop-color="#00DC82"/>
<stop offset="1" stop-color="#058163"/>
</linearGradient>
<linearGradient id="paint3_linear_2948_8537" x1="318.102" y1="284.86" x2="199.919" y2="222.041" gradientUnits="userSpaceOnUse">
<stop stop-color="#00DC82"/>
<stop offset="1" stop-color="#058163"/>
</linearGradient>
<linearGradient id="paint4_linear_2948_8537" x1="278.471" y1="267.913" x2="125.351" y2="130.87" gradientUnits="userSpaceOnUse">
<stop stop-color="#00DC82"/>
<stop offset="1" stop-color="#2CFFCC"/>
</linearGradient>
</defs>
</svg>
