<svg xmlns="http://www.w3.org/2000/svg" width="174" height="174" fill="none" viewBox="0 0 174 174"><path fill="#8714BD" d="M3.31 108.8C.809 98.895-.001 88.97 1.01 78.942c1.803-17.868 8.407-33.784 20.038-47.485C34.96 15.07 52.586 4.882 73.843 1.726c27.563-4.093 51.92 3.33 72.507 22.199 14.698 13.47 23.678 30.268 26.567 49.969 4.043 27.571-3.36 51.928-22.253 72.491-14.039 15.28-31.583 24.33-52.155 26.85-26.742 3.275-50.282-4.274-70.204-22.487C15.829 139.342 7.622 125.28 3.311 108.8Zm78.972-46.463c-1.629 1.626-3.318 3.198-4.864 4.901-.878.968-1.656 1.04-2.863.642-5.622-1.853-10.742-.78-14.862 3.454-3.387 3.48-6.428 7.301-9.566 11.019-1.386 1.641-.854 3.615 1.122 4.498.905.405 1.886.653 2.762 1.107 3.265 1.695 6.501 3.446 9.748 5.176l.165.797c-.782.604-1.638 1.135-2.332 1.828-1.411 1.41-1.436 2.708-.05 4.092a1656.51 1656.51 0 0 0 12.731 12.572c1.363 1.333 2.606 1.321 3.98-.02.745-.726 1.354-1.591 2.121-2.509.521.727.84 1.078 1.052 1.484 1.883 3.606 3.825 7.185 5.59 10.849 1.1 2.282 3.02 2.99 4.886 1.427 3.61-3.023 7.235-6.032 10.725-9.188 4.253-3.847 5.733-10.385 3.534-15.385-.483-1.099-.224-1.664.525-2.402 3.763-3.71 7.49-7.457 11.22-11.2 4.045-4.06 7.099-8.805 8.019-14.462.987-6.074 1.391-12.25 1.896-18.393.355-4.312-2.12-6.733-6.434-6.46-4.646.294-9.289.652-13.927 1.058-7.55.662-13.945 3.787-19.253 9.182-1.908 1.94-3.845 3.85-5.925 5.933ZM64.024 114.11c.071-.076.142-.153.215-.228 1.688-1.738 1.888-3.506.54-4.776-1.3-1.226-2.994-.999-4.659.658-2.74 2.729-5.473 5.466-8.195 8.213-1.55 1.562-1.68 3.29-.383 4.54 1.268 1.221 2.927 1.094 4.435-.394 2.641-2.606 5.26-5.236 8.047-8.013Zm7.228 7.547c.22-.223.442-.445.66-.67 1.447-1.498 1.602-3.227.399-4.445-1.272-1.286-3-1.155-4.559.381a427.438 427.438 0 0 0-5.1 5.102c-1.36 1.384-1.482 3.134-.346 4.326 1.18 1.238 3.033 1.16 4.45-.223 1.46-1.423 2.894-2.874 4.496-4.471Zm-23.795-10.067c1.752 1.249 2.955 1.195 4.43-.254a469.584 469.584 0 0 0 5.202-5.199c1.38-1.401 1.482-3.268.274-4.447-1.203-1.173-2.922-1.075-4.315.293a458.727 458.727 0 0 0-5.202 5.201c-1.37 1.389-1.49 2.409-.39 4.406Z"/><path fill="#FEFEFF" d="M82.36 62.258c2.002-2.003 3.94-3.914 5.847-5.854 5.308-5.395 11.703-8.52 19.253-9.182 4.638-.406 9.281-.764 13.927-1.058 4.314-.273 6.788 2.148 6.434 6.46-.505 6.143-.909 12.319-1.896 18.393-.92 5.657-3.974 10.402-8.019 14.461-3.73 3.744-7.457 7.491-11.22 11.2-.75.739-1.008 1.304-.525 2.403 2.199 5 .719 11.538-3.534 15.385-3.49 3.156-7.116 6.165-10.725 9.188-1.866 1.563-3.787.855-4.886-1.427-1.765-3.664-3.707-7.243-5.59-10.849-.212-.406-.531-.757-1.052-1.484-.767.918-1.376 1.783-2.12 2.509-1.375 1.341-2.618 1.353-3.981.02a1656.51 1656.51 0 0 1-12.731-12.572c-1.386-1.384-1.361-2.682.05-4.092.694-.693 1.55-1.224 2.332-1.828l-.165-.797c-3.247-1.73-6.483-3.481-9.748-5.176-.876-.454-1.857-.702-2.762-1.107-1.976-.883-2.509-2.857-1.122-4.498 3.138-3.718 6.178-7.539 9.566-11.019 4.12-4.233 9.24-5.307 14.862-3.454 1.207.398 1.985.326 2.863-.642 1.545-1.703 3.235-3.275 4.942-4.98ZM92.8 77.843c.261.39.5.797.79 1.165 3.003 3.814 8.508 4.277 12.07 1.023 3.578-3.269 3.633-8.76.121-12.116-2.845-2.717-7.113-3.057-10.365-.825-3.432 2.356-4.473 6.375-2.616 10.753Z"/><path fill="#FBF8FD" d="M63.943 114.19c-2.707 2.699-5.326 5.328-7.967 7.934-1.508 1.488-3.167 1.615-4.434.394-1.299-1.25-1.167-2.978.382-4.54a1710.38 1710.38 0 0 1 8.195-8.212c1.666-1.658 3.36-1.885 4.66-.659 1.347 1.27 1.147 3.038-.541 4.776-.073.075-.144.152-.295.307Z"/><path fill="#FCF9FD" d="M71.174 121.737c-1.524 1.518-2.957 2.969-4.417 4.392-1.418 1.383-3.271 1.461-4.45.224-1.137-1.193-1.014-2.943.345-4.327a427.438 427.438 0 0 1 5.1-5.102c1.56-1.536 3.288-1.667 4.56-.381 1.203 1.218 1.048 2.947-.399 4.445-.218.225-.44.447-.74.749Z"/><path fill="#FDFAFE" d="M47.378 111.495c-1.02-1.901-.9-2.921.47-4.309a459.634 459.634 0 0 1 5.201-5.202c1.394-1.368 3.113-1.466 4.315-.293 1.208 1.18 1.107 3.046-.274 4.447a462.763 462.763 0 0 1-5.202 5.199c-1.475 1.45-2.677 1.504-4.51.158Z"/><path fill="#8917BE" d="M92.741 77.738c-1.8-4.273-.76-8.292 2.673-10.648 3.252-2.232 7.52-1.892 10.365.825 3.512 3.355 3.457 8.847-.121 12.116-3.562 3.254-9.067 2.79-12.07-1.023-.29-.368-.528-.776-.847-1.27Z"/></svg>