<svg width="288" height="271" viewBox="0 0 288 271" fill="none" xmlns="http://www.w3.org/2000/svg">
<path d="M155.667 92.6235L134.538 44.3237L91.8242 8.90603L115.474 65.3804L155.667 92.6235Z" fill="#1B2530"/>
<path d="M137.846 263.748L287.984 41.3023L272.465 0.00019455L91.9967 270.619C107.28 268.329 122.563 266.039 137.862 263.733L137.846 263.748Z" fill="url(#paint0_linear_2130_12262)"/>
<path d="M91.9972 270.619L272.465 0L208.197 3.16485L104.476 161.439L46.3681 11.1485L0.754822 13.391L91.9972 270.619Z" fill="url(#paint1_linear_2130_12262)"/>
<path d="M104.475 161.439L208.196 3.16444L153.901 5.85217L115.473 65.38L91.8231 8.9057L46.3674 11.1481L104.475 161.439Z" fill="url(#paint2_linear_2130_12262)"/>
<path style="mix-blend-mode:overlay" opacity="0.4" d="M272.465 0L91.9814 270.619L0.754822 13.391L46.3681 11.1485L91.8239 8.90611L115.458 65.3645L153.886 5.83669L208.197 3.16485L272.465 0Z" fill="url(#paint3_linear_2130_12262)"/>
<defs>
<linearGradient id="paint0_linear_2130_12262" x1="173.47" y1="129.759" x2="213.733" y2="154.85" gradientUnits="userSpaceOnUse">
<stop stop-color="#3D9DA7"/>
<stop offset="1" stop-color="#3D7FB5"/>
</linearGradient>
<linearGradient id="paint1_linear_2130_12262" x1="35.7487" y1="12.5163" x2="227.735" y2="170.491" gradientUnits="userSpaceOnUse">
<stop stop-color="#3DD491"/>
<stop offset="1" stop-color="#3D9DA7"/>
</linearGradient>
<linearGradient id="paint2_linear_2130_12262" x1="46.3832" y1="19.7044" x2="188.269" y2="98.9795" gradientUnits="userSpaceOnUse">
<stop stop-color="#2C3D4F"/>
<stop offset="1" stop-color="#1F2D4F"/>
</linearGradient>
<linearGradient id="paint3_linear_2130_12262" x1="136.618" y1="-76.0041" x2="136.618" y2="300.375" gradientUnits="userSpaceOnUse">
<stop offset="0.29" stop-color="white" stop-opacity="0"/>
<stop offset="0.52" stop-color="white"/>
<stop offset="0.73" stop-color="white" stop-opacity="0"/>
</linearGradient>
</defs>
</svg>
